Coordinates
version=1
nRows=8
nColumns=36
inDegrees=yes

Units are S.I. units (second, meters, Newtons, ...)
If the header above contains a line with 'inDegrees', this indicates whether rotational values are in degrees (yes) or radians (no).

endheader
time	pelvis_tilt	pelvis_list	pelvis_rotation	pelvis_tx	pelvis_ty	pelvis_tz	hip_flexion_r	hip_adduction_r	hip_rotation_r	knee_angle_r	knee_angle_r_beta	ankle_angle_r	subtalar_angle_r	mtp_angle_r	hip_flexion_l	hip_adduction_l	hip_rotation_l	knee_angle_l	knee_angle_l_beta	ankle_angle_l	subtalar_angle_l	mtp_angle_l	lumbar_extension	lumbar_bending	lumbar_rotation	arm_flex_r	arm_add_r	arm_rot_r	elbow_flex_r	pro_sup_r	arm_flex_l	arm_add_l	arm_rot_l	elbow_flex_l	pro_sup_l
      4.05084750	     -1.80036984	      0.83201146	     20.16894379	     -0.13760849	      1.02641183	     -0.09119143	      3.34769430	      3.73908819	      3.77084135	     14.55161666	      0.25397362	      7.11907158	    -25.17464709	     -7.49999987	      5.13707363	     -0.21500046	      8.44791312	     17.92763068	      0.31289618	      6.55370121	     -7.70013966	     -7.49999987	     -3.22512853	     -0.78722069	     19.32298745	   -183.59903770	   -175.55093345	   -181.32407701	     38.94239534	     87.74978312	    365.10677859	      0.32452369	    341.67291521	     35.93046797	     89.99506311
      4.06779660	     -1.38461486	      0.82336339	     20.73853447	     -0.13843548	      1.03022021	     -0.09162908	      3.15675056	      3.88709049	      3.37194185	     14.87382874	      0.25959728	      5.89357695	    -26.30570793	     -7.49999987	      3.01106879	     -0.27196829	      9.77345709	     14.12993398	      0.24661387	      6.12480867	     -7.13063929	     -7.49999987	     -3.46516488	     -0.56838070	     19.61386287	   -183.69732086	   -175.18849471	   -181.63581743	     37.70994912	     88.32372244	    365.01986268	      0.46477933	    342.29808286	     35.89573527	     92.53471682
      4.08474580	     -1.71689000	      0.94217822	     21.89555153	     -0.14465696	      1.03350198	     -0.08690179	      3.68185502	      3.81907963	      2.79731973	     14.68194327	      0.25624825	      5.55093119	    -26.69197364	     -7.49999987	      2.38603067	     -0.10946564	     10.46585410	     11.62548882	      0.20290306	      5.87135696	     -6.53913499	     -7.49999987	     -3.05669909	     -0.96585395	     19.36676392	   -183.90374651	   -175.22812272	   -181.84597679	     37.18129001	     88.50128058	    365.11334796	      0.25132989	    342.28778292	     35.78295192	     92.75973664
      4.10169490	     -1.80368257	      1.24452640	     23.22050079	     -0.15571207	      1.03290582	     -0.08714441	      3.99161279	      3.49271592	      1.93324867	     14.49026511	      0.25290284	      5.15622041	    -27.03519890	     -7.49999987	      1.50182720	      0.09893556	     11.01398448	      8.98244468	      0.15677323	      5.10216880	     -5.57259533	     -7.49999987	     -3.35663790	     -1.38762874	     18.62031096	   -183.36151633	   -175.43875426	   -182.66528341	     36.15691204	     88.83575030	    365.44765862	      0.04530038	    342.68386362	     35.51543915	     93.30025979
      4.11864410	     -2.25050315	      1.48656376	     24.50539605	     -0.17188185	      1.03361576	     -0.09100451	      4.90227158	      2.77512945	      0.46224231	     14.45628800	      0.25230982	      4.54048358	    -27.13250993	     -7.49999987	      1.34581627	      0.67239609	     11.31956130	      6.51616698	      0.11372857	      4.03058140	     -4.62826551	     -7.49999987	     -3.85832091	     -1.69500653	     18.28739217	   -183.28789442	   -175.66690765	   -185.53380166	     36.27908087	     92.03135139	    366.17924128	     -0.24743584	    344.18087465	     34.93045167	     96.12649712
      4.13559320	     -2.54034970	      1.69291826	     26.08730386	     -0.17248330	      1.03691555	     -0.09235038	      5.61354220	      2.14342124	     -0.91977732	     14.61358970	      0.25505526	      4.15133928	    -27.50347748	     -7.49999987	      1.00060106	      0.97924668	     11.22521362	      4.45285401	      0.07771696	      2.93173222	     -3.37960654	     -7.49999987	     -4.27604731	     -1.97093337	     17.32313056	   -183.03836066	   -175.57041286	   -185.90255475	     36.08392797	     92.07555372	    366.55892558	     -0.19701426	    344.28366579	     34.85291866	     96.20920374
      4.15254240	     -2.71153145	      1.81516929	     27.67115193	     -0.18396627	      1.03757209	     -0.09194400	      6.16317267	      1.55606539	     -2.37764462	     14.49997835	      0.25307236	      3.70747058	    -27.49649394	     -7.49999987	      0.82091464	      1.13350599	     11.68514865	      2.60174388	      0.04540900	      2.05917512	     -1.85494505	     -7.49999987	     -4.97236053	     -2.03162324	     16.22657107	   -182.39382154	   -175.61702734	   -187.32861806	     35.60344937	     92.42799199	    366.92049944	     -0.43237305	    344.98712287	     34.95108461	     96.70107984
      4.16949150	     -2.99902718	      1.82940886	     28.80599709	     -0.19531712	      1.03422815	     -0.09176949	      6.66331152	      1.02202622	     -3.52608070	     13.89810042	      0.24256761	      3.52021413	    -27.12389974	     -7.49999987	      1.14453768	      1.35437864	     12.52748969	      1.36380788	      0.02380294	      1.42850176	     -0.79570275	     -7.49999987	     -5.52727887	     -2.10568443	     15.60999537	   -181.89363641	   -175.41001308	   -188.35888455	     35.76065219	     92.87060865	    367.29098193	     -0.66652403	    345.31558991	     35.18824293	     97.07250134
